<svg preserveAspectRatio="none" width="100%" height="100%" overflow="visible" style="display: block;" viewBox="0 0 5.01253 2.71515" fill="none" xmlns="http://www.w3.org/2000/svg">
<g id="Group">
<path id="Vector" d="M0.825859 0.298182H0V2.16744e-08H2.0097V0.298182H1.1798V2.71515H0.825859V0.298182Z" fill="var(--fill-0, #E4E4E7)"/>
<path id="Vector_2" d="M4.60202 1.52242C4.58182 1.14424 4.55757 0.688485 4.56162 0.349899H4.54949C4.45657 0.669091 4.34424 1.00687 4.20687 1.38101L3.72768 2.69818H3.46182L3.02222 1.40525C2.89374 1.02303 2.78465 0.672323 2.70788 0.349899H2.6998C2.69172 0.688485 2.67151 1.14343 2.64727 1.55071L2.57535 2.71515H2.24081L2.43071 0H2.87758L3.34141 1.31313C3.45374 1.64768 3.54667 1.94586 3.61535 2.22788H3.62747C3.69535 1.95394 3.79232 1.65576 3.91354 1.31313L4.39596 0H4.84363L5.01253 2.71515H4.6699L4.60202 1.52242Z" fill="var(--fill-0, #E4E4E7)"/>
</g>
</svg>
