<svg preserveAspectRatio="none" width="100%" height="100%" overflow="visible" style="display: block;" viewBox="0 0 28.3265 31.5951" fill="none" xmlns="http://www.w3.org/2000/svg">
<g id="Group">
<path id="Vector" d="M16.3055 3.28889C9.66545 3.28889 4.28202 8.6699 4.28202 15.3099C4.28202 21.9499 9.66545 27.3333 16.3055 27.3333C22.9455 27.3333 28.3265 21.9499 28.3265 15.3099C28.3265 8.6699 22.9455 3.28889 16.3055 3.28889ZM19.1895 19.036C18.8097 19.4182 18.3741 19.7083 17.9038 19.9046C17.8376 19.9337 17.7681 19.9604 17.7018 19.9846C17.6461 20.0057 17.5903 20.0242 17.537 20.0404C17.4255 20.0752 17.3164 20.1042 17.2073 20.1309C17.0376 20.1681 16.8671 20.1947 16.6974 20.2133C16.5673 20.2238 16.4372 20.2295 16.3071 20.2295C16.177 20.2295 16.0412 20.2238 15.9111 20.2133C15.7382 20.1947 15.5709 20.1681 15.4012 20.1309C15.2897 20.1042 15.1806 20.0752 15.0715 20.0404C15.0158 20.0242 14.96 20.0057 14.9067 19.9846C14.838 19.958 14.7685 19.9313 14.7022 19.9046C14.2352 19.7083 13.7988 19.419 13.4166 19.036C11.8255 17.4448 11.8255 14.8663 13.4166 13.2727L16.3006 10.3911L16.303 10.3935L16.3055 10.3911L19.1871 13.2727C20.7806 14.8663 20.7806 17.4457 19.1871 19.036H19.1895Z" fill="var(--fill-0, #E4E4E7)"/>
<path id="Vector_2" d="M24.0097 27.1717C21.802 28.598 19.1741 29.423 16.3515 29.423C8.53414 29.423 2.17212 23.0537 2.17212 15.2364C2.17212 9.16364 6.00081 3.97333 11.3721 1.95394L10.3952 0C4.30707 2.38141 0 8.3095 0 15.2364C0 24.2699 7.31798 31.5952 16.3515 31.5952C19.5216 31.5952 22.4897 30.6901 24.9939 29.1273L24.0097 27.1733V27.1717Z" fill="var(--fill-0, #3B82F6)"/>
<g id="Vector_3">
</g>
</g>
</svg>
